<?xml version="1.0" encoding="UTF-8"?>
<svg xmlns="http://www.w3.org/2000/svg" xmlns:xlink="http://www.w3.org/1999/xlink" width="48" height="48" viewBox="0 0 48 48">
<defs>
<clipPath id="clip-0">
<path clip-rule="nonzero" d="M 4 14 L 24 14 L 24 34 L 4 34 Z M 4 14 "/>
</clipPath>
<clipPath id="clip-1">
<path clip-rule="nonzero" d="M 22.332031 14 L 5.667969 14 C 4.746094 14 4 14.746094 4 15.667969 L 4 32.332031 C 4 33.253906 4.746094 34 5.667969 34 L 22.332031 34 C 23.253906 34 24 33.253906 24 32.332031 L 24 15.667969 C 24 14.746094 23.253906 14 22.332031 14 Z M 22.332031 14 "/>
</clipPath>
<linearGradient id="linear-pattern-0" gradientUnits="userSpaceOnUse" x1="-0.023448" y1="0" x2="1.023446" y2="0" gradientTransform="matrix(13.05, 22.6, 22.6, -13.05, -18.29397, 27.579906)">
<stop offset="0" stop-color="rgb(0%, 49.803162%, 64.704895%)" stop-opacity="1"/>
<stop offset="0.03125" stop-color="rgb(0.0167847%, 49.74823%, 64.639282%)" stop-opacity="1"/>
<stop offset="0.046875" stop-color="rgb(0.0671387%, 49.597168%, 64.457703%)" stop-opacity="1"/>
<stop offset="0.0625" stop-color="rgb(0.131226%, 49.404907%, 64.227295%)" stop-opacity="1"/>
<stop offset="0.078125" stop-color="rgb(0.195312%, 49.212646%, 63.996887%)" stop-opacity="1"/>
<stop offset="0.09375" stop-color="rgb(0.259399%, 49.020386%, 63.764954%)" stop-opacity="1"/>
<stop offset="0.109375" stop-color="rgb(0.323486%, 48.828125%, 63.534546%)" stop-opacity="1"/>
<stop offset="0.125" stop-color="rgb(0.389099%, 48.635864%, 63.304138%)" stop-opacity="1"/>
<stop offset="0.140625" stop-color="rgb(0.453186%, 48.443604%, 63.072205%)" stop-opacity="1"/>
<stop offset="0.15625" stop-color="rgb(0.517273%, 48.251343%, 62.841797%)" stop-opacity="1"/>
<stop offset="0.171875" stop-color="rgb(0.58136%, 48.057556%, 62.611389%)" stop-opacity="1"/>
<stop offset="0.1875" stop-color="rgb(0.645447%, 47.865295%, 62.379456%)" stop-opacity="1"/>
<stop offset="0.203125" stop-color="rgb(0.709534%, 47.673035%, 62.149048%)" stop-opacity="1"/>
<stop offset="0.21875" stop-color="rgb(0.773621%, 47.480774%, 61.91864%)" stop-opacity="1"/>
<stop offset="0.234375" stop-color="rgb(0.837708%, 47.288513%, 61.686707%)" stop-opacity="1"/>
<stop offset="0.25" stop-color="rgb(0.901794%, 47.096252%, 61.456299%)" stop-opacity="1"/>
<stop offset="0.265625" stop-color="rgb(0.965881%, 46.903992%, 61.225891%)" stop-opacity="1"/>
<stop offset="0.28125" stop-color="rgb(1.029968%, 46.711731%, 60.993958%)" stop-opacity="1"/>
<stop offset="0.296875" stop-color="rgb(1.094055%, 46.517944%, 60.76355%)" stop-opacity="1"/>
<stop offset="0.3125" stop-color="rgb(1.158142%, 46.325684%, 60.533142%)" stop-opacity="1"/>
<stop offset="0.328125" stop-color="rgb(1.222229%, 46.133423%, 60.301208%)" stop-opacity="1"/>
<stop offset="0.34375" stop-color="rgb(1.286316%, 45.941162%, 60.070801%)" stop-opacity="1"/>
<stop offset="0.359375" stop-color="rgb(1.350403%, 45.748901%, 59.840393%)" stop-opacity="1"/>
<stop offset="0.375" stop-color="rgb(1.41449%, 45.556641%, 59.608459%)" stop-opacity="1"/>
<stop offset="0.390625" stop-color="rgb(1.478577%, 45.36438%, 59.378052%)" stop-opacity="1"/>
<stop offset="0.40625" stop-color="rgb(1.542664%, 45.172119%, 59.147644%)" stop-opacity="1"/>
<stop offset="0.421875" stop-color="rgb(1.60675%, 44.979858%, 58.91571%)" stop-opacity="1"/>
<stop offset="0.4375" stop-color="rgb(1.670837%, 44.786072%, 58.685303%)" stop-opacity="1"/>
<stop offset="0.453125" stop-color="rgb(1.734924%, 44.593811%, 58.453369%)" stop-opacity="1"/>
<stop offset="0.46875" stop-color="rgb(1.799011%, 44.40155%, 58.222961%)" stop-opacity="1"/>
<stop offset="0.484375" stop-color="rgb(1.863098%, 44.20929%, 57.992554%)" stop-opacity="1"/>
<stop offset="0.5" stop-color="rgb(1.927185%, 44.017029%, 57.76062%)" stop-opacity="1"/>
<stop offset="0.515625" stop-color="rgb(1.992798%, 43.824768%, 57.530212%)" stop-opacity="1"/>
<stop offset="0.53125" stop-color="rgb(2.056885%, 43.632507%, 57.299805%)" stop-opacity="1"/>
<stop offset="0.546875" stop-color="rgb(2.120972%, 43.440247%, 57.067871%)" stop-opacity="1"/>
<stop offset="0.5625" stop-color="rgb(2.185059%, 43.24646%, 56.837463%)" stop-opacity="1"/>
<stop offset="0.578125" stop-color="rgb(2.249146%, 43.054199%, 56.607056%)" stop-opacity="1"/>
<stop offset="0.59375" stop-color="rgb(2.313232%, 42.861938%, 56.375122%)" stop-opacity="1"/>
<stop offset="0.609375" stop-color="rgb(2.377319%, 42.669678%, 56.144714%)" stop-opacity="1"/>
<stop offset="0.625" stop-color="rgb(2.441406%, 42.477417%, 55.914307%)" stop-opacity="1"/>
<stop offset="0.640625" stop-color="rgb(2.505493%, 42.285156%, 55.682373%)" stop-opacity="1"/>
<stop offset="0.65625" stop-color="rgb(2.56958%, 42.092896%, 55.451965%)" stop-opacity="1"/>
<stop offset="0.671875" stop-color="rgb(2.633667%, 41.900635%, 55.221558%)" stop-opacity="1"/>
<stop offset="0.6875" stop-color="rgb(2.697754%, 41.706848%, 54.989624%)" stop-opacity="1"/>
<stop offset="0.703125" stop-color="rgb(2.761841%, 41.514587%, 54.759216%)" stop-opacity="1"/>
<stop offset="0.71875" stop-color="rgb(2.825928%, 41.322327%, 54.528809%)" stop-opacity="1"/>
<stop offset="0.734375" stop-color="rgb(2.890015%, 41.130066%, 54.296875%)" stop-opacity="1"/>
<stop offset="0.75" stop-color="rgb(2.954102%, 40.937805%, 54.066467%)" stop-opacity="1"/>
<stop offset="0.765625" stop-color="rgb(3.018188%, 40.745544%, 53.83606%)" stop-opacity="1"/>
<stop offset="0.78125" stop-color="rgb(3.082275%, 40.553284%, 53.604126%)" stop-opacity="1"/>
<stop offset="0.796875" stop-color="rgb(3.146362%, 40.361023%, 53.373718%)" stop-opacity="1"/>
<stop offset="0.8125" stop-color="rgb(3.210449%, 40.168762%, 53.143311%)" stop-opacity="1"/>
<stop offset="0.828125" stop-color="rgb(3.274536%, 39.974976%, 52.911377%)" stop-opacity="1"/>
<stop offset="0.84375" stop-color="rgb(3.338623%, 39.782715%, 52.680969%)" stop-opacity="1"/>
<stop offset="0.859375" stop-color="rgb(3.40271%, 39.590454%, 52.450562%)" stop-opacity="1"/>
<stop offset="0.875" stop-color="rgb(3.466797%, 39.398193%, 52.218628%)" stop-opacity="1"/>
<stop offset="0.890625" stop-color="rgb(3.530884%, 39.205933%, 51.98822%)" stop-opacity="1"/>
<stop offset="0.90625" stop-color="rgb(3.596497%, 39.013672%, 51.757812%)" stop-opacity="1"/>
<stop offset="0.921875" stop-color="rgb(3.660583%, 38.821411%, 51.525879%)" stop-opacity="1"/>
<stop offset="0.9375" stop-color="rgb(3.72467%, 38.62915%, 51.295471%)" stop-opacity="1"/>
<stop offset="0.953125" stop-color="rgb(3.788757%, 38.435364%, 51.065063%)" stop-opacity="1"/>
<stop offset="0.96875" stop-color="rgb(3.852844%, 38.243103%, 50.83313%)" stop-opacity="1"/>
<stop offset="1" stop-color="rgb(3.903198%, 38.092041%, 50.653076%)" stop-opacity="1"/>
</linearGradient>
</defs>
<path fill-rule="nonzero" fill="rgb(7.058716%, 23.136902%, 42.744446%)" fill-opacity="1" d="M 42.601562 23.261719 L 29.53125 15.308594 L 29.359375 15.199219 C 29.109375 15.070312 28.832031 15.003906 28.550781 15 C 28.269531 15.003906 27.996094 15.070312 27.75 15.199219 L 27.570312 15.308594 L 14.480469 23.25 C 14.226562 23.410156 14.070312 23.691406 14.070312 23.988281 C 14.066406 24.300781 14.230469 24.59375 14.5 24.75 L 27.589844 32.691406 L 27.769531 32.789062 C 28.015625 32.921875 28.289062 32.992188 28.570312 32.988281 C 28.851562 32.992188 29.128906 32.921875 29.378906 32.789062 L 29.550781 32.691406 L 42.601562 24.75 C 42.851562 24.585938 43.003906 24.300781 43 24 C 43.003906 23.699219 42.851562 23.421875 42.601562 23.261719 Z M 42.601562 23.261719 "/>
<path fill-rule="nonzero" fill="rgb(0%, 47.099304%, 83.099365%)" fill-opacity="1" d="M 15 12 L 24.050781 12 L 24.050781 20 L 15 20 Z M 15 12 "/>
<path fill-rule="nonzero" fill="rgb(15.699768%, 65.899658%, 91.799927%)" fill-opacity="1" d="M 24.050781 12 L 33 12 L 33 20 L 24.050781 20 Z M 24.050781 12 "/>
<path fill-rule="nonzero" fill="rgb(31.399536%, 85.099792%, 100%)" fill-opacity="1" d="M 33 12 L 42 12 L 42 20 L 33 20 Z M 33 12 "/>
<path fill-rule="nonzero" fill="rgb(15.699768%, 65.899658%, 91.799927%)" fill-opacity="1" d="M 33 20 L 42 20 L 42 28 L 33 28 Z M 33 20 "/>
<path fill-rule="nonzero" fill="rgb(0%, 47.099304%, 83.099365%)" fill-opacity="1" d="M 24.050781 20 L 33 20 L 33 28 L 24.050781 28 Z M 24.050781 20 "/>
<path fill-rule="nonzero" fill="rgb(1.199341%, 39.199829%, 72.198486%)" fill-opacity="1" d="M 24.050781 28 L 33 28 L 33 37 L 24.050781 37 Z M 24.050781 28 "/>
<path fill-rule="nonzero" fill="rgb(7.843018%, 26.66626%, 49.01886%)" fill-opacity="1" d="M 15.160156 27.699219 L 24.050781 27.699219 L 24.050781 35.109375 L 15.160156 35.109375 Z M 15.160156 27.699219 "/>
<path fill-rule="nonzero" fill="rgb(0%, 47.099304%, 83.099365%)" fill-opacity="1" d="M 33 28 L 42.050781 28 L 42.050781 36 L 33 36 Z M 33 28 "/>
<path fill-rule="nonzero" fill="rgb(1.199341%, 39.199829%, 72.198486%)" fill-opacity="1" d="M 15.160156 19.558594 L 24.050781 19.558594 L 24.050781 27.710938 L 15.160156 27.710938 Z M 15.160156 19.558594 "/>
<path fill-rule="nonzero" fill="rgb(1.176453%, 34.509277%, 65.489197%)" fill-opacity="1" d="M 42 12 L 42 7.910156 C 42 7.5 41.910156 6.980469 41.597656 6.632812 C 41.28125 6.28125 40.839844 6.074219 40.371094 6.050781 L 16.699219 6 C 16.226562 6.019531 15.78125 6.226562 15.464844 6.578125 C 15.144531 6.925781 14.976562 7.386719 15 7.859375 L 15 12 Z M 42 12 "/>
<path fill-rule="nonzero" fill="rgb(3.898621%, 15.299988%, 40.39917%)" fill-opacity="0.5" d="M 28 34.5 L 13 25.5 L 13 24 L 27.113281 31.058594 C 27.671875 31.335938 28.328125 31.339844 28.890625 31.0625 L 43.003906 24.136719 L 43 25 Z M 28 34.5 "/>
<path fill-rule="nonzero" fill="rgb(7.798767%, 56.498718%, 87.5%)" fill-opacity="1" d="M 42.640625 24.738281 L 29.070312 32.699219 L 28.890625 32.800781 C 28.628906 32.933594 28.34375 33 28.050781 33 C 27.761719 33 27.476562 32.933594 27.21875 32.800781 L 27.039062 32.699219 L 13.488281 24.761719 C 13.226562 24.609375 13.066406 24.324219 13.070312 24.019531 L 13.070312 40.070312 C 13.0625 40.574219 13.257812 41.0625 13.609375 41.425781 C 13.960938 41.789062 14.445312 41.996094 14.949219 42 L 41.179688 42 C 41.683594 41.992188 42.164062 41.785156 42.515625 41.421875 C 42.867188 41.058594 43.007812 40.503906 43 40 L 43 24 C 43.007812 24.300781 42.898438 24.585938 42.640625 24.738281 Z M 42.640625 24.738281 "/>
<path fill-rule="nonzero" fill="rgb(15.699768%, 65.899658%, 91.799927%)" fill-opacity="1" d="M 41.140625 42 C 41.558594 42 41.96875 41.867188 42.308594 41.621094 L 27.988281 32.96875 L 27.800781 32.910156 L 13.589844 24.699219 L 13 24 L 13 40 C 13 41.09375 13.925781 41.984375 15.019531 42 Z M 41.140625 42 "/>
<path fill-rule="nonzero" fill="rgb(3.898621%, 15.299988%, 40.39917%)" fill-opacity="0.6" d="M 15 14 L 15 13 L 23.328125 13 C 24.253906 13 25 13.746094 25 14.671875 L 25 33 C 25 34.105469 24.105469 35 23 35 L 13 35 L 13 34 Z M 15 14 "/>
<path fill-rule="nonzero" fill="rgb(6.274414%, 47.842407%, 83.528137%)" fill-opacity="1" d="M 5.671875 14 L 22.328125 14 C 23.253906 14 24 14.746094 24 15.671875 L 24 32.328125 C 24 33.253906 23.253906 34 22.328125 34 L 5.671875 34 C 4.746094 34 4 33.253906 4 32.328125 L 4 15.671875 C 4 14.746094 4.746094 14 5.671875 14 Z M 5.671875 14 "/>
<path fill-rule="evenodd" fill="rgb(100%, 100%, 100%)" fill-opacity="1" d="M 11.121094 18.96875 C 10.289062 19.460938 9.625 20.195312 9.21875 21.070312 C 8.765625 22.03125 8.535156 23.085938 8.550781 24.148438 C 8.53125 25.164062 8.757812 26.164062 9.210938 27.070312 C 9.625 27.90625 10.273438 28.601562 11.078125 29.070312 C 11.949219 29.570312 12.9375 29.824219 13.941406 29.800781 C 14.960938 29.820312 15.964844 29.566406 16.851562 29.058594 C 17.675781 28.570312 18.335938 27.847656 18.75 26.980469 C 19.21875 26.023438 19.453125 24.972656 19.441406 23.910156 C 19.457031 22.867188 19.222656 21.839844 18.75 20.910156 C 18.339844 20.089844 17.707031 19.402344 16.921875 18.929688 C 16.070312 18.4375 15.101562 18.1875 14.121094 18.210938 C 13.070312 18.183594 12.03125 18.445312 11.121094 18.96875 Z M 12.289062 27.390625 C 11.8125 27.03125 11.445312 26.550781 11.21875 26 L 11.191406 26.019531 C 10.699219 24.730469 10.699219 23.308594 11.191406 22.019531 C 11.417969 21.457031 11.796875 20.972656 12.289062 20.621094 C 12.792969 20.273438 13.390625 20.09375 14 20.109375 C 14.636719 20.085938 15.261719 20.28125 15.769531 20.660156 C 16.234375 21.035156 16.578125 21.535156 16.769531 22.101562 C 16.988281 22.726562 17.09375 23.386719 17.089844 24.050781 C 17.097656 24.707031 16.980469 25.363281 16.75 25.980469 C 16.558594 26.53125 16.210938 27.011719 15.75 27.371094 C 15.230469 27.734375 14.605469 27.917969 13.96875 27.890625 C 13.371094 27.902344 12.785156 27.730469 12.289062 27.390625 Z M 12.289062 27.390625 "/>
<path fill-rule="nonzero" fill="rgb(1.960754%, 43.920898%, 57.646179%)" fill-opacity="1" d="M 13 7.714844 L 13 40.285156 C 13 40.742188 13.171875 41.175781 13.480469 41.496094 C 13.785156 41.820312 14.203125 42 14.636719 42 L 22 42 L 22 6 L 14.636719 6 C 14.203125 6 13.785156 6.179688 13.480469 6.503906 C 13.171875 6.824219 13 7.257812 13 7.714844 Z M 13 7.714844 "/>
<path fill-rule="nonzero" fill="rgb(12.548828%, 69.802856%, 77.645874%)" fill-opacity="1" d="M 28.167969 17.332031 L 13.167969 17.332031 L 13.167969 30.667969 L 28.167969 30.667969 Z M 28.167969 17.332031 "/>
<path fill-rule="nonzero" fill="rgb(6.274414%, 59.606934%, 71.37146%)" fill-opacity="1" d="M 20 7.714844 L 20 40.285156 C 20 40.742188 20.191406 41.175781 20.53125 41.496094 C 20.875 41.820312 21.335938 42 21.816406 42 L 30 42 L 30 6 L 21.816406 6 C 21.335938 6 20.875 6.179688 20.53125 6.503906 C 20.191406 6.824219 20 7.257812 20 7.714844 Z M 20 7.714844 "/>
<path fill-rule="nonzero" fill="rgb(18.823242%, 79.998779%, 84.312439%)" fill-opacity="1" d="M 34 21.5 L 20.667969 21.5 L 20.667969 34 L 34 34 Z M 34 21.5 "/>
<path fill-rule="nonzero" fill="rgb(18.823242%, 79.998779%, 84.312439%)" fill-opacity="1" d="M 41.332031 6 L 29.667969 6 C 28.746094 6 28 6.765625 28 7.714844 L 28 40.285156 C 28 41.234375 28.746094 42 29.667969 42 L 41.332031 42 C 42.253906 42 43 41.234375 43 40.285156 L 43 7.714844 C 43 6.765625 42.253906 6 41.332031 6 Z M 41.332031 6 "/>
<path fill-rule="nonzero" fill="rgb(43.920898%, 92.547607%, 93.331909%)" fill-opacity="1" d="M 43 17 L 28 17 L 28 31 L 43 31 Z M 43 17 "/>
<path fill-rule="nonzero" fill="rgb(0%, 0%, 0%)" fill-opacity="0.1" d="M 24 13.167969 L 13.167969 13.167969 L 13.167969 35.667969 L 24 35.667969 C 24.441406 35.667969 24.867188 35.492188 25.179688 35.179688 C 25.492188 34.867188 25.667969 34.441406 25.667969 34 L 25.667969 14.832031 C 25.667969 14.390625 25.492188 13.96875 25.179688 13.65625 C 24.867188 13.34375 24.441406 13.167969 24 13.167969 Z M 24 13.167969 "/>
<path fill-rule="nonzero" fill="rgb(0%, 0%, 0%)" fill-opacity="0.2" d="M 23.167969 14 L 13.167969 14 L 13.167969 36.5 L 23.167969 36.5 C 23.609375 36.5 24.03125 36.324219 24.34375 36.011719 C 24.65625 35.699219 24.832031 35.273438 24.832031 34.832031 L 24.832031 15.667969 C 24.832031 15.226562 24.65625 14.800781 24.34375 14.488281 C 24.03125 14.175781 23.609375 14 23.167969 14 Z M 23.167969 14 "/>
<path fill-rule="nonzero" fill="rgb(0%, 0%, 0%)" fill-opacity="0.2" d="M 23.167969 14 L 13.167969 14 L 13.167969 34.832031 L 23.167969 34.832031 C 23.609375 34.832031 24.03125 34.65625 24.34375 34.34375 C 24.65625 34.03125 24.832031 33.609375 24.832031 33.167969 L 24.832031 15.667969 C 24.832031 15.226562 24.65625 14.800781 24.34375 14.488281 C 24.03125 14.175781 23.609375 14 23.167969 14 Z M 23.167969 14 "/>
<path fill-rule="nonzero" fill="rgb(0%, 0%, 0%)" fill-opacity="0.2" d="M 22.332031 14.832031 L 13.167969 14.832031 L 13.167969 34.832031 L 22.332031 34.832031 C 22.761719 34.832031 23.175781 34.667969 23.484375 34.371094 C 23.796875 34.074219 23.980469 33.671875 24 33.242188 L 24 16.425781 C 23.980469 15.996094 23.796875 15.589844 23.484375 15.292969 C 23.175781 15 22.761719 14.832031 22.332031 14.832031 Z M 22.332031 14.832031 "/>
<g clip-path="url(#clip-0)">
<g clip-path="url(#clip-1)">
<path fill-rule="nonzero" fill="url(#linear-pattern-0)" d="M -4.660156 19 L 19 5.339844 L 32.660156 29 L 9 42.660156 Z M -4.660156 19 "/>
</g>
</g>
<path fill-rule="nonzero" fill="rgb(100%, 100%, 100%)" fill-opacity="1" d="M 15.859375 18.890625 C 16.347656 19.058594 16.773438 19.367188 17.089844 19.773438 C 17.375 20.152344 17.527344 20.617188 17.515625 21.089844 C 17.523438 21.660156 17.328125 22.210938 16.964844 22.648438 C 16.582031 23.105469 16.066406 23.4375 15.492188 23.601562 C 15.953125 23.648438 16.394531 23.800781 16.792969 24.042969 C 17.160156 24.261719 17.464844 24.574219 17.675781 24.949219 C 17.882812 25.335938 17.988281 25.769531 17.984375 26.207031 C 17.992188 26.800781 17.820312 27.382812 17.492188 27.875 C 17.148438 28.375 16.671875 28.765625 16.117188 29 C 15.46875 29.269531 14.769531 29.402344 14.066406 29.390625 L 10.015625 29.390625 L 10.015625 18.558594 L 13.941406 18.558594 C 14.59375 18.550781 15.246094 18.664062 15.859375 18.890625 Z M 13.476562 23.058594 C 13.953125 23.085938 14.425781 22.941406 14.808594 22.648438 C 14.972656 22.511719 15.105469 22.332031 15.1875 22.132812 C 15.273438 21.933594 15.308594 21.714844 15.292969 21.5 C 15.292969 20.667969 14.683594 20.207031 13.476562 20.207031 L 12.132812 20.207031 L 12.132812 23.035156 Z M 12.132812 27.800781 L 13.800781 27.800781 C 14.3125 27.832031 14.820312 27.679688 15.234375 27.375 C 15.40625 27.234375 15.542969 27.054688 15.632812 26.847656 C 15.722656 26.644531 15.761719 26.421875 15.75 26.199219 C 15.761719 25.980469 15.722656 25.761719 15.628906 25.558594 C 15.539062 25.359375 15.398438 25.183594 15.226562 25.050781 C 14.769531 24.761719 14.230469 24.625 13.691406 24.660156 L 12.132812 24.660156 Z M 12.132812 27.800781 "/>
</svg>
