<?xml version="1.0" encoding="UTF-8"?>
<svg xmlns="http://www.w3.org/2000/svg" xmlns:xlink="http://www.w3.org/1999/xlink" width="96" height="96" viewBox="0 0 96 96">
<path fill-rule="nonzero" fill="rgb(0%, 73.725891%, 94.902039%)" fill-opacity="1" d="M 46.070312 38.449219 L 49.925781 38.449219 L 49.925781 42.300781 L 46.070312 42.300781 Z M 46.070312 38.449219 "/>
<path fill-rule="nonzero" fill="rgb(0%, 73.725891%, 94.902039%)" fill-opacity="1" d="M 66.253906 54.609375 C 66.253906 55.027344 66.160156 55.441406 65.972656 55.859375 C 64.648438 57.789062 63.285156 59.335938 61.890625 60.507812 C 60.488281 61.679688 58.71875 62.75 56.5625 63.710938 C 54.410156 64.671875 51.816406 65.160156 48.792969 65.160156 L 47.824219 65.160156 C 44.796875 65.160156 42.199219 64.675781 40.03125 63.710938 C 37.855469 62.75 36.078125 61.679688 34.703125 60.507812 C 33.324219 59.335938 31.96875 57.789062 30.648438 55.859375 C 30.421875 55.332031 30.308594 54.914062 30.308594 54.609375 C 30.308594 54.34375 30.375 54.070312 30.507812 53.789062 C 30.644531 53.507812 30.859375 53.25 31.160156 53.019531 C 31.347656 52.910156 31.515625 52.820312 31.671875 52.761719 C 31.824219 52.703125 31.972656 52.671875 32.121094 52.671875 C 32.878906 52.597656 33.480469 52.75 33.933594 53.125 C 34.382812 53.507812 34.785156 53.957031 35.125 54.488281 C 35.5 55.054688 36.792969 56.246094 39.003906 58.054688 C 41.214844 59.871094 44.304688 60.835938 48.277344 60.949219 C 52.28125 60.835938 55.386719 59.871094 57.597656 58.054688 C 59.808594 56.246094 61.105469 55.054688 61.480469 54.488281 C 61.820312 53.957031 62.226562 53.5 62.699219 53.125 C 63.175781 52.75 63.75 52.597656 64.429688 52.671875 C 64.582031 52.671875 64.742188 52.703125 64.910156 52.761719 C 65.082031 52.820312 65.261719 52.902344 65.449219 53.019531 C 65.753906 53.25 65.972656 53.496094 66.101562 53.757812 C 66.242188 54.023438 66.289062 54.304688 66.253906 54.609375 M 38.308594 42.308594 L 42.21875 42.308594 L 42.21875 38.457031 L 38.308594 38.457031 L 38.308594 34.601562 L 42.21875 34.601562 L 42.21875 30.75 L 46.070312 30.75 L 46.070312 34.601562 L 49.921875 34.601562 L 49.921875 30.75 L 53.777344 30.75 L 53.777344 34.601562 L 57.6875 34.601562 L 57.6875 38.457031 L 53.777344 38.457031 L 53.777344 42.308594 L 57.6875 42.308594 L 57.6875 46.21875 L 53.777344 46.21875 L 53.777344 50.070312 L 49.921875 50.070312 L 49.921875 46.21875 L 46.070312 46.21875 L 46.070312 50.070312 L 42.21875 50.070312 L 42.21875 46.21875 L 38.308594 46.21875 Z M 70.621094 25.527344 C 68.914062 23.824219 66.875 22.972656 64.496094 22.972656 L 31.503906 22.972656 C 29.125 22.972656 27.085938 23.820312 25.382812 25.496094 C 23.683594 27.179688 22.832031 29.230469 22.832031 31.648438 L 22.832031 64.582031 C 22.832031 67.003906 23.683594 69.050781 25.382812 70.734375 C 27.085938 72.417969 29.125 73.253906 31.503906 73.253906 L 42.21875 73.253906 L 48 81.027344 L 53.78125 73.253906 L 64.496094 73.253906 C 66.875 73.253906 68.914062 72.417969 70.617188 70.734375 C 72.316406 69.050781 73.167969 67.003906 73.167969 64.582031 L 73.167969 31.648438 C 73.171875 29.265625 72.324219 27.226562 70.621094 25.527344 "/>
</svg>
