<?xml version='1.0' encoding='utf-8'?>
<svg xmlns="http://www.w3.org/2000/svg" fill="currentColor" viewBox="0 0 64 64" width="64" height="64" preserveAspectRatio="xMidYMid meet"><defs><linearGradient id="icon-e5365711ae59384d__icon-25be9db7bea2e476__a" x1="9" x2="38.647" y1="12" y2="46.588" gradientUnits="userSpaceOnUse"><stop stop-color="#209782" /><stop offset="1" stop-color="#0C695A" /></linearGradient><linearGradient id="icon-f97004e9ed4470ef__icon-7b9d11aeb70760b9__b" x1="9" x2="38.647" y1="12" y2="46.588" gradientUnits="userSpaceOnUse"><stop stop-color="#209782" /><stop offset="1" stop-color="#0C695A" /></linearGradient></defs><g transform="translate(3.000000,7.153949) scale(1.656403391) translate(-9.000000,-12.000000)" data-normalized="1"><path fill="url(#icon-e5365711ae59384d__icon-25be9db7bea2e476__a)" fill-rule="evenodd" d="M9 13.5a1.5 1.5 0 0 1 3 0V17h23v-3.5a1.5 1.5 0 0 1 3 0v11.723a8.964 8.964 0 0 0-1-.168V13.5a.5.5 0 0 0-1 0V25c-.338 0-.672.019-1 .055V18H12v12h15.936c-.16.323-.302.657-.424 1H12v3.5a1.5 1.5 0 0 1-3 0v-21Zm2 0v21a.5.5 0 0 1-1 0v-21a.5.5 0 0 1 1 0Z" clip-rule="evenodd" /><path fill="url(#icon-f97004e9ed4470ef__icon-7b9d11aeb70760b9__b)" fill-rule="evenodd" d="M44 34a8 8 0 1 1-16 0 8 8 0 0 1 16 0Zm-8-5a.5.5 0 0 1 .5.5v4h4a.5.5 0 0 1 0 1h-4v4a.5.5 0 0 1-1 0v-4h-4a.5.5 0 0 1 0-1h4v-4a.5.5 0 0 1 .5-.5Z" clip-rule="evenodd" /></g></svg>