<?xml version='1.0' encoding='utf-8'?>
<svg xmlns="http://www.w3.org/2000/svg" fill="currentColor" viewBox="0 0 64 64" width="64" height="64" preserveAspectRatio="xMidYMid meet"><defs><linearGradient id="icon-c0071d6d36175ec5__icon-0042e5ce930a93b7__a" x1="7" x2="44.872" y1="5" y2="39.882" gradientUnits="userSpaceOnUse"><stop stop-color="#209782" /><stop offset="1" stop-color="#0C695A" /></linearGradient></defs><g transform="translate(5.288533,3.000000) scale(1.525688450) translate(-6.984375,-4.968750)" data-normalized="1"><path fill="url(#icon-c0071d6d36175ec5__icon-0042e5ce930a93b7__a)" fill-rule="evenodd" d="M8.5 6a.5.5 0 0 0-.5.5v22.522A.499.499 0 0 1 8.146 29H40.5l-8.4-11.2a.5.5 0 0 1 0-.6L40.5 6h-32ZM8 29.978V42.5a.5.5 0 0 1-1 0v-36A1.5 1.5 0 0 1 8.5 5h33a.5.5 0 0 1 .4.8l-8.775 11.7L41.9 29.2a.5.5 0 0 1-.4.8H8.146c-.05 0-.1-.008-.146-.022Z" clip-rule="evenodd" /></g></svg>